<svg version="1.1" id="Layer_1" xmlns="http://www.w3.org/2000/svg" xmlns:xlink="http://www.w3.org/1999/xlink" x="0px" y="0px"
	 width="100%" viewBox="0 0 4267 3200" enable-background="new 0 0 4267 3200" xml:space="preserve">
<path fill="#000000" opacity="1.000000" stroke="none" 
	d="
M2616.000000,3202.000000 
	C1744.000000,3202.000000 873.000000,3202.000000 2.000000,3202.000000 
	C2.000000,2135.333252 2.000000,1068.666626 2.000000,2.000000 
	C1424.666626,2.000000 2847.333252,2.000000 4270.000000,2.000000 
	C4270.000000,1068.666626 4270.000000,2135.333252 4270.000000,3202.000000 
	C3719.000000,3202.000000 3168.000000,3202.000000 2616.000000,3202.000000 
M1285.429932,1701.602539 
	C1378.492065,1715.174072 1471.896362,1717.953003 1565.603394,1710.217773 
	C1639.012451,1704.158081 1709.229492,1685.880371 1776.112183,1654.854980 
	C1829.822510,1629.939941 1879.553467,1598.350830 1927.979736,1564.597168 
	C1970.077881,1535.254517 2011.893921,1505.507202 2053.885498,1476.010742 
	C2067.538086,1466.420654 2081.737305,1457.802734 2097.307373,1451.524170 
	C2121.162109,1441.904541 2144.807129,1442.087036 2168.096191,1452.904541 
	C2177.128418,1457.099854 2186.070801,1461.791260 2194.280518,1467.391113 
	C2211.338135,1479.026489 2228.003174,1491.251465 2244.607178,1503.534790 
	C2286.395264,1534.448364 2327.583984,1566.196045 2369.898682,1596.367554 
	C2418.967285,1631.354858 2472.042969,1659.012695 2529.346680,1678.231079 
	C2592.417969,1699.383667 2657.577637,1708.429077 2723.690918,1711.978149 
	C2763.318848,1714.105469 2802.940186,1713.873535 2842.600098,1712.289917 
	C2915.301025,1709.387207 2987.529053,1702.610840 3058.869629,1687.868042 
	C3102.967041,1678.755127 3146.550049,1667.663330 3188.037842,1649.875854 
	C3204.498291,1642.818604 3220.345459,1634.151611 3235.874268,1625.183228 
	C3242.624756,1621.284912 3248.571045,1615.368042 3253.644043,1609.327881 
	C3262.871094,1598.341431 3262.663574,1587.289307 3252.692871,1577.063843 
	C3245.786133,1569.981201 3237.757568,1563.772461 3229.489258,1558.290649 
	C3217.564697,1550.384155 3205.004150,1543.430054 3192.652588,1536.175537 
	C2995.599854,1420.439941 2798.523438,1304.744995 2601.519775,1188.925781 
	C2592.068848,1183.369629 2582.857422,1177.246582 2574.210693,1170.518433 
	C2560.069824,1159.515381 2551.228271,1145.068726 2547.536377,1127.262695 
	C2542.093506,1101.012207 2541.275391,1074.394287 2539.720703,1047.784302 
	C2538.283691,1023.186157 2536.935547,998.513245 2533.795654,974.098694 
	C2527.064453,921.759338 2500.753906,881.333252 2456.510498,852.578796 
	C2425.873291,832.667114 2391.904785,821.334595 2356.460205,813.897339 
	C2304.033203,802.896851 2250.717285,800.404907 2197.446533,798.594666 
	C2142.487793,796.727051 2087.472900,796.991516 2032.539429,800.273743 
	C1994.950928,802.519653 1957.376953,805.113220 1920.264160,811.990601 
	C1887.373901,818.085449 1855.400635,827.122681 1825.449585,842.345886 
	C1774.135742,868.427246 1741.332031,908.769714 1730.654663,966.035217 
	C1726.368530,989.021912 1724.823486,1012.255920 1723.648804,1035.577881 
	C1722.292114,1062.514160 1720.922607,1089.506348 1717.892944,1116.285767 
	C1714.903931,1142.708008 1702.921387,1164.253662 1678.576294,1177.738281 
	C1666.061157,1184.670532 1654.297974,1192.945679 1642.007080,1200.300049 
	C1519.372681,1273.679932 1396.725708,1347.038940 1274.026489,1420.310425 
	C1199.948608,1464.546753 1125.737305,1508.559326 1051.688232,1552.843506 
	C1043.140991,1557.954956 1034.739868,1563.562134 1027.157837,1569.986206 
	C1008.577820,1585.728027 1008.864136,1601.088989 1028.062134,1616.284180 
	C1036.380005,1622.867798 1045.485474,1628.600830 1054.733765,1633.836060 
	C1079.181396,1647.675537 1105.372314,1657.556274 1132.027588,1666.149048 
	C1181.586670,1682.125488 1232.271973,1693.347290 1285.429932,1701.602539 
M2412.114990,2026.816284 
	C2409.409912,2015.826050 2407.082764,2004.726196 2403.931152,1993.865479 
	C2393.024414,1956.278076 2369.724609,1928.901245 2334.818359,1911.377075 
	C2329.174561,1908.543945 2323.373291,1905.977539 2317.497070,1903.663574 
	C2291.860840,1893.567993 2265.022705,1888.358032 2237.748291,1886.128052 
	C2208.550781,1883.740845 2179.251465,1882.158081 2149.966064,1881.385376 
	C2102.975586,1880.145386 2055.989258,1880.684448 2009.398193,1888.152588 
	C1982.007935,1892.542969 1955.419678,1899.608521 1930.111572,1911.411377 
	C1896.842529,1926.927002 1874.528076,1952.030518 1862.534302,1986.450195 
	C1859.253540,1995.865234 1856.137817,2005.455200 1854.262695,2015.217773 
	C1850.370850,2035.479248 1847.321655,2055.903809 1843.997070,2076.272705 
	C1838.435181,2110.347412 1821.773804,2137.272705 1792.535400,2156.016357 
	C1780.762085,2163.563477 1768.929810,2171.038086 1756.882568,2178.135498 
	C1644.668335,2244.242432 1532.362793,2310.195312 1420.203491,2376.395508 
	C1407.603760,2383.832275 1395.496094,2392.181152 1383.650391,2400.781982 
	C1378.077026,2404.828857 1373.047363,2410.007568 1368.875122,2415.510254 
	C1362.649536,2423.721191 1362.900879,2432.538330 1369.710083,2440.252930 
	C1374.261841,2445.409668 1379.706177,2450.339600 1385.728271,2453.521484 
	C1398.349243,2460.189941 1411.268066,2466.603516 1424.675293,2471.422852 
	C1490.082031,2494.933105 1557.837891,2506.676270 1627.122192,2509.771973 
	C1664.111328,2511.424561 1701.071045,2510.516113 1737.902710,2506.101318 
	C1779.033447,2501.170654 1819.405640,2493.161621 1858.407593,2478.743896 
	C1905.011719,2461.516602 1947.318359,2436.429199 1988.317139,2408.856934 
	C2009.050781,2394.913330 2029.616333,2380.716064 2050.478271,2366.967773 
	C2064.962891,2357.422119 2080.179443,2349.197754 2096.697754,2343.529541 
	C2118.925537,2335.902588 2141.057129,2335.774414 2163.359131,2343.241455 
	C2180.574219,2349.005615 2196.445068,2357.413574 2211.269775,2367.674561 
	C2228.797119,2379.806152 2245.895264,2392.559082 2263.162842,2405.065430 
	C2295.319092,2428.354736 2328.450684,2450.006348 2364.795166,2466.369873 
	C2432.527588,2496.864990 2504.168213,2508.583496 2577.762207,2509.408936 
	C2610.361816,2509.774902 2643.044678,2508.062744 2675.597900,2505.908936 
	C2720.882568,2502.912842 2765.644043,2495.873291 2809.500488,2483.921387 
	C2834.917480,2476.994873 2859.904541,2468.727783 2882.910645,2455.555664 
	C2888.646729,2452.270996 2894.335693,2448.536865 2899.113525,2444.022461 
	C2908.407227,2435.240479 2909.223145,2424.442871 2901.043457,2414.551758 
	C2896.007812,2408.462891 2889.946777,2402.943359 2883.497070,2398.364258 
	C2872.377197,2390.469727 2860.826904,2383.113037 2849.052734,2376.221191 
	C2790.697754,2342.062256 2732.179932,2308.182617 2673.778076,2274.103760 
	C2607.898682,2235.661377 2542.219971,2196.872559 2476.178711,2158.711182 
	C2443.823730,2140.015137 2425.789795,2112.168457 2419.787109,2075.879883 
	C2417.178467,2060.110352 2414.835449,2044.296753 2412.114990,2026.816284 
z"/>
<path fill="#FFFFFF" opacity="1.000000" stroke="none" 
	d="
M1284.562866,1701.469971 
	C1232.271973,1693.347290 1181.586670,1682.125488 1132.027588,1666.149048 
	C1105.372314,1657.556274 1079.181396,1647.675537 1054.733765,1633.836060 
	C1045.485474,1628.600830 1036.380005,1622.867798 1028.062134,1616.284180 
	C1008.864136,1601.088989 1008.577820,1585.728027 1027.157837,1569.986206 
	C1034.739868,1563.562134 1043.140991,1557.954956 1051.688232,1552.843506 
	C1125.737305,1508.559326 1199.948608,1464.546753 1274.026489,1420.310425 
	C1396.725708,1347.038940 1519.372681,1273.679932 1642.007080,1200.300049 
	C1654.297974,1192.945679 1666.061157,1184.670532 1678.576294,1177.738281 
	C1702.921387,1164.253662 1714.903931,1142.708008 1717.892944,1116.285767 
	C1720.922607,1089.506348 1722.292114,1062.514160 1723.648804,1035.577881 
	C1724.823486,1012.255920 1726.368530,989.021912 1730.654663,966.035217 
	C1741.332031,908.769714 1774.135742,868.427246 1825.449585,842.345886 
	C1855.400635,827.122681 1887.373901,818.085449 1920.264160,811.990601 
	C1957.376953,805.113220 1994.950928,802.519653 2032.539429,800.273743 
	C2087.472900,796.991516 2142.487793,796.727051 2197.446533,798.594666 
	C2250.717285,800.404907 2304.033203,802.896851 2356.460205,813.897339 
	C2391.904785,821.334595 2425.873291,832.667114 2456.510498,852.578796 
	C2500.753906,881.333252 2527.064453,921.759338 2533.795654,974.098694 
	C2536.935547,998.513245 2538.283691,1023.186157 2539.720703,1047.784302 
	C2541.275391,1074.394287 2542.093506,1101.012207 2547.536377,1127.262695 
	C2551.228271,1145.068726 2560.069824,1159.515381 2574.210693,1170.518433 
	C2582.857422,1177.246582 2592.068848,1183.369629 2601.519775,1188.925781 
	C2798.523438,1304.744995 2995.599854,1420.439941 3192.652588,1536.175537 
	C3205.004150,1543.430054 3217.564697,1550.384155 3229.489258,1558.290649 
	C3237.757568,1563.772461 3245.786133,1569.981201 3252.692871,1577.063843 
	C3262.663574,1587.289307 3262.871094,1598.341431 3253.644043,1609.327881 
	C3248.571045,1615.368042 3242.624756,1621.284912 3235.874268,1625.183228 
	C3220.345459,1634.151611 3204.498291,1642.818604 3188.037842,1649.875854 
	C3146.550049,1667.663330 3102.967041,1678.755127 3058.869629,1687.868042 
	C2987.529053,1702.610840 2915.301025,1709.387207 2842.600098,1712.289917 
	C2802.940186,1713.873535 2763.318848,1714.105469 2723.690918,1711.978149 
	C2657.577637,1708.429077 2592.417969,1699.383667 2529.346680,1678.231079 
	C2472.042969,1659.012695 2418.967285,1631.354858 2369.898682,1596.367554 
	C2327.583984,1566.196045 2286.395264,1534.448364 2244.607178,1503.534790 
	C2228.003174,1491.251465 2211.338135,1479.026489 2194.280518,1467.391113 
	C2186.070801,1461.791260 2177.128418,1457.099854 2168.096191,1452.904541 
	C2144.807129,1442.087036 2121.162109,1441.904541 2097.307373,1451.524170 
	C2081.737305,1457.802734 2067.538086,1466.420654 2053.885498,1476.010742 
	C2011.893921,1505.507202 1970.077881,1535.254517 1927.979736,1564.597168 
	C1879.553467,1598.350830 1829.822510,1629.939941 1776.112183,1654.854980 
	C1709.229492,1685.880371 1639.012451,1704.158081 1565.603394,1710.217773 
	C1471.896362,1717.953003 1378.492065,1715.174072 1284.562866,1701.469971 
z"/>
<path fill="#FEFEFE" opacity="1.000000" stroke="none" 
	d="
M2412.243408,2027.659790 
	C2414.835449,2044.296753 2417.178467,2060.110352 2419.787109,2075.879883 
	C2425.789795,2112.168457 2443.823730,2140.015137 2476.178711,2158.711182 
	C2542.219971,2196.872559 2607.898682,2235.661377 2673.778076,2274.103760 
	C2732.179932,2308.182617 2790.697754,2342.062256 2849.052734,2376.221191 
	C2860.826904,2383.113037 2872.377197,2390.469727 2883.497070,2398.364258 
	C2889.946777,2402.943359 2896.007812,2408.462891 2901.043457,2414.551758 
	C2909.223145,2424.442871 2908.407227,2435.240479 2899.113525,2444.022461 
	C2894.335693,2448.536865 2888.646729,2452.270996 2882.910645,2455.555664 
	C2859.904541,2468.727783 2834.917480,2476.994873 2809.500488,2483.921387 
	C2765.644043,2495.873291 2720.882568,2502.912842 2675.597900,2505.908936 
	C2643.044678,2508.062744 2610.361816,2509.774902 2577.762207,2509.408936 
	C2504.168213,2508.583496 2432.527588,2496.864990 2364.795166,2466.369873 
	C2328.450684,2450.006348 2295.319092,2428.354736 2263.162842,2405.065430 
	C2245.895264,2392.559082 2228.797119,2379.806152 2211.269775,2367.674561 
	C2196.445068,2357.413574 2180.574219,2349.005615 2163.359131,2343.241455 
	C2141.057129,2335.774414 2118.925537,2335.902588 2096.697754,2343.529541 
	C2080.179443,2349.197754 2064.962891,2357.422119 2050.478271,2366.967773 
	C2029.616333,2380.716064 2009.050781,2394.913330 1988.317139,2408.856934 
	C1947.318359,2436.429199 1905.011719,2461.516602 1858.407593,2478.743896 
	C1819.405640,2493.161621 1779.033447,2501.170654 1737.902710,2506.101318 
	C1701.071045,2510.516113 1664.111328,2511.424561 1627.122192,2509.771973 
	C1557.837891,2506.676270 1490.082031,2494.933105 1424.675293,2471.422852 
	C1411.268066,2466.603516 1398.349243,2460.189941 1385.728271,2453.521484 
	C1379.706177,2450.339600 1374.261841,2445.409668 1369.710083,2440.252930 
	C1362.900879,2432.538330 1362.649536,2423.721191 1368.875122,2415.510254 
	C1373.047363,2410.007568 1378.077026,2404.828857 1383.650391,2400.781982 
	C1395.496094,2392.181152 1407.603760,2383.832275 1420.203491,2376.395508 
	C1532.362793,2310.195312 1644.668335,2244.242432 1756.882568,2178.135498 
	C1768.929810,2171.038086 1780.762085,2163.563477 1792.535400,2156.016357 
	C1821.773804,2137.272705 1838.435181,2110.347412 1843.997070,2076.272705 
	C1847.321655,2055.903809 1850.370850,2035.479248 1854.262695,2015.217773 
	C1856.137817,2005.455200 1859.253540,1995.865234 1862.534302,1986.450195 
	C1874.528076,1952.030518 1896.842529,1926.927002 1930.111572,1911.411377 
	C1955.419678,1899.608521 1982.007935,1892.542969 2009.398193,1888.152588 
	C2055.989258,1880.684448 2102.975586,1880.145386 2149.966064,1881.385376 
	C2179.251465,1882.158081 2208.550781,1883.740845 2237.748291,1886.128052 
	C2265.022705,1888.358032 2291.860840,1893.567993 2317.497070,1903.663574 
	C2323.373291,1905.977539 2329.174561,1908.543945 2334.818359,1911.377075 
	C2369.724609,1928.901245 2393.024414,1956.278076 2403.931152,1993.865479 
	C2407.082764,2004.726196 2409.409912,2015.826050 2412.243408,2027.659790 
z"/>
</svg>