<svg width="111" height="36" viewBox="0 0 111 36" fill="none" xmlns="http://www.w3.org/2000/svg">
<path d="M93.3295 35.7061C87.6175 35.7061 84.3535 32.6341 84.3535 28.0741C84.3535 22.8421 88.2415 20.5861 92.9455 19.7221L98.7055 18.6661C101.394 18.1861 102.018 17.1781 102.018 15.5461C102.018 13.3381 100.674 11.8501 96.7855 11.8501C92.9455 11.8501 90.4975 13.3861 90.5455 16.6021L85.3135 16.0261C85.3615 10.6501 89.9695 7.57812 96.8335 7.57812C103.89 7.57812 107.586 10.4101 107.586 15.8821V29.0821C107.586 30.9061 108.402 31.2901 109.266 31.2901C109.794 31.2901 109.986 31.2421 110.082 31.1941H110.37V35.1301C109.65 35.4661 108.306 35.6101 107.634 35.6101C104.802 35.6101 102.882 34.3141 102.738 31.5781V30.8101C101.346 33.7861 97.6495 35.7061 93.3295 35.7061ZM94.8175 31.3861C98.5135 31.3861 101.25 29.7061 102.114 26.8741V21.7381C101.394 22.1221 100.242 22.3621 98.5135 22.7461L94.6255 23.5141C90.9775 24.2341 90.0655 25.9141 90.0655 27.6421C90.0655 30.1861 92.0335 31.3861 94.8175 31.3861Z" fill="#FFEFE5"/>
<path d="M71.2778 35.7061C64.2698 35.7061 59.9978 32.3461 59.7578 26.8261L65.1818 26.2021C65.1818 29.4661 67.5818 31.6261 71.4698 31.6261C74.7338 31.6261 76.8938 30.5221 76.8938 27.8341C76.8938 24.5221 73.4858 24.2821 68.9738 23.3221C63.5498 22.1221 60.8138 19.8661 60.8138 15.5461C60.8138 10.6981 64.9418 7.57812 71.3738 7.57812C77.8058 7.57812 81.8858 10.4101 82.2698 15.7861L76.8938 16.5061C76.8938 13.4821 75.0218 11.5621 71.1818 11.5621C68.1578 11.5621 66.4298 13.0021 66.4298 14.9701C66.4298 17.6581 68.7338 18.3781 73.8698 19.3861C79.1498 20.3941 82.6538 22.0741 82.6538 27.5461C82.6538 32.4421 78.9578 35.7061 71.2778 35.7061Z" fill="#FFEFE5"/>
<path d="M44.9538 35.7061C36.9378 35.7061 31.8018 30.0901 31.8018 21.6901C31.8018 13.1461 36.9858 7.57812 44.9538 7.57812C52.9218 7.57812 58.0578 13.1461 58.0578 21.6421C58.0578 30.1381 52.9218 35.7061 44.9538 35.7061ZM44.9538 31.0021C49.6578 31.0021 52.4418 27.4981 52.4418 21.5941C52.4418 15.6901 49.6578 12.2821 44.9538 12.2821C40.2018 12.2821 37.4178 15.7861 37.4178 21.6421C37.4178 27.5461 40.2018 31.0021 44.9538 31.0021Z" fill="#FFEFE5"/>
<path d="M0.489258 35.2264V0.234375H17.5293C24.6333 0.234375 28.7613 3.93038 28.7613 9.64237C28.7613 13.7224 26.5533 16.8904 22.8573 18.0424C27.5133 19.0024 28.1373 21.1144 28.1373 24.5704V32.8264C28.1373 33.5944 28.2333 34.4584 28.9533 34.6984V35.2264H23.0973C22.6653 34.6024 22.4253 33.7864 22.4253 32.1544V25.4344C22.4253 22.1704 21.6573 20.5864 18.2973 20.5864H6.20126V35.2264H0.489258ZM6.20126 15.7864H16.7133C20.6013 15.7864 22.7613 13.8664 22.7613 10.4104C22.7613 6.95437 20.5533 5.17837 16.7613 5.17837H6.20126V15.7864Z" fill="#FFEFE5"/>
</svg>
